<?xml version="1.0" encoding="UTF-8"?>
<svg version="1.1" xmlns="http://www.w3.org/2000/svg" width="1080" height="723">
<path d="M0 0 C0.74311432 -0.00085602 1.48622864 -0.00171204 2.25186157 -0.00259399 C4.7626481 -0.00425597 7.27336869 0.00128543 9.78414917 0.00672913 C11.60663285 0.00703529 13.42911664 0.00690226 15.25160027 0.00636387 C20.14524699 0.00613752 25.0388694 0.01194583 29.93251038 0.0189743 C34.51953206 0.02465673 39.10654773 0.02493674 43.693573 0.02565002 C57.12074095 0.03090355 70.54790435 0.04486462 83.97506714 0.05775452 C113.96381714 0.07837952 143.95256714 0.09900452 174.85006714 0.12025452 C174.85006714 104.40025452 174.85006714 208.68025452 174.85006714 316.12025452 C175.84006714 316.12025452 176.83006714 316.12025452 177.85006714 316.12025452 C177.85006714 314.47025452 177.85006714 312.82025452 177.85006714 311.12025452 C179.17006714 311.12025452 180.49006714 311.12025452 181.85006714 311.12025452 C181.85006714 310.46025452 181.85006714 309.80025452 181.85006714 309.12025452 C182.51006714 309.12025452 183.17006714 309.12025452 183.85006714 309.12025452 C184.18006714 307.47025452 184.51006714 305.82025452 184.85006714 304.12025452 C186.17006714 304.12025452 187.49006714 304.12025452 188.85006714 304.12025452 C188.85006714 303.46025452 188.85006714 302.80025452 188.85006714 302.12025452 C189.51006714 302.12025452 190.17006714 302.12025452 190.85006714 302.12025452 C191.18006714 300.47025452 191.51006714 298.82025452 191.85006714 297.12025452 C193.17006714 297.12025452 194.49006714 297.12025452 195.85006714 297.12025452 C195.85006714 296.46025452 195.85006714 295.80025452 195.85006714 295.12025452 C196.51006714 295.12025452 197.17006714 295.12025452 197.85006714 295.12025452 C197.85006714 293.80025452 197.85006714 292.48025452 197.85006714 291.12025452 C199.50006714 291.12025452 201.15006714 291.12025452 202.85006714 291.12025452 C202.85006714 290.13025452 202.85006714 289.14025452 202.85006714 288.12025452 C203.51006714 288.12025452 204.17006714 288.12025452 204.85006714 288.12025452 C204.85006714 286.80025452 204.85006714 285.48025452 204.85006714 284.12025452 C206.17006714 284.12025452 207.49006714 284.12025452 208.85006714 284.12025452 C209.18006714 283.13025452 209.51006714 282.14025452 209.85006714 281.12025452 C210.51006714 281.12025452 211.17006714 281.12025452 211.85006714 281.12025452 C211.85006714 279.80025452 211.85006714 278.48025452 211.85006714 277.12025452 C213.17006714 277.12025452 214.49006714 277.12025452 215.85006714 277.12025452 C215.85006714 276.46025452 215.85006714 275.80025452 215.85006714 275.12025452 C216.84006714 275.12025452 217.83006714 275.12025452 218.85006714 275.12025452 C218.85006714 273.47025452 218.85006714 271.82025452 218.85006714 270.12025452 C220.17006714 270.12025452 221.49006714 270.12025452 222.85006714 270.12025452 C222.85006714 269.46025452 222.85006714 268.80025452 222.85006714 268.12025452 C223.51006714 268.12025452 224.17006714 268.12025452 224.85006714 268.12025452 C225.18006714 266.47025452 225.51006714 264.82025452 225.85006714 263.12025452 C227.17006714 263.12025452 228.49006714 263.12025452 229.85006714 263.12025452 C229.85006714 262.46025452 229.85006714 261.80025452 229.85006714 261.12025452 C230.51006714 261.12025452 231.17006714 261.12025452 231.85006714 261.12025452 C232.18006714 259.80025452 232.51006714 258.48025452 232.85006714 257.12025452 C234.17006714 256.79025452 235.49006714 256.46025452 236.85006714 256.12025452 C236.85006714 255.46025452 236.85006714 254.80025452 236.85006714 254.12025452 C237.51006714 254.12025452 238.17006714 254.12025452 238.85006714 254.12025452 C238.85006714 252.80025452 238.85006714 251.48025452 238.85006714 250.12025452 C240.50006714 250.12025452 242.15006714 250.12025452 243.85006714 250.12025452 C243.85006714 249.13025452 243.85006714 248.14025452 243.85006714 247.12025452 C244.51006714 247.12025452 245.17006714 247.12025452 245.85006714 247.12025452 C245.85006714 245.80025452 245.85006714 244.48025452 245.85006714 243.12025452 C246.48944214 242.99650452 247.12881714 242.87275452 247.78756714 242.74525452 C248.46819214 242.53900452 249.14881714 242.33275452 249.85006714 242.12025452 C250.18006714 241.46025452 250.51006714 240.80025452 250.85006714 240.12025452 C251.51006714 240.12025452 252.17006714 240.12025452 252.85006714 240.12025452 C252.85006714 238.80025452 252.85006714 237.48025452 252.85006714 236.12025452 C254.17006714 236.12025452 255.49006714 236.12025452 256.85006714 236.12025452 C256.85006714 235.46025452 256.85006714 234.80025452 256.85006714 234.12025452 C257.84006714 234.12025452 258.83006714 234.12025452 259.85006714 234.12025452 C259.85006714 232.47025452 259.85006714 230.82025452 259.85006714 229.12025452 C261.17006714 229.12025452 262.49006714 229.12025452 263.85006714 229.12025452 C263.85006714 228.46025452 263.85006714 227.80025452 263.85006714 227.12025452 C264.51006714 227.12025452 265.17006714 227.12025452 265.85006714 227.12025452 C266.18006714 225.47025452 266.51006714 223.82025452 266.85006714 222.12025452 C268.17006714 222.12025452 269.49006714 222.12025452 270.85006714 222.12025452 C270.85006714 221.46025452 270.85006714 220.80025452 270.85006714 220.12025452 C271.51006714 220.12025452 272.17006714 220.12025452 272.85006714 220.12025452 C272.85006714 218.80025452 272.85006714 217.48025452 272.85006714 216.12025452 C274.50006714 215.79025452 276.15006714 215.46025452 277.85006714 215.12025452 C277.85006714 214.46025452 277.85006714 213.80025452 277.85006714 213.12025452 C278.51006714 213.12025452 279.17006714 213.12025452 279.85006714 213.12025452 C279.85006714 211.80025452 279.85006714 210.48025452 279.85006714 209.12025452 C281.50006714 209.12025452 283.15006714 209.12025452 284.85006714 209.12025452 C284.85006714 208.13025452 284.85006714 207.14025452 284.85006714 206.12025452 C285.51006714 206.12025452 286.17006714 206.12025452 286.85006714 206.12025452 C286.85006714 204.80025452 286.85006714 203.48025452 286.85006714 202.12025452 C288.50006714 202.12025452 290.15006714 202.12025452 291.85006714 202.12025452 C291.85006714 201.13025452 291.85006714 200.14025452 291.85006714 199.12025452 C292.51006714 199.12025452 293.17006714 199.12025452 293.85006714 199.12025452 C293.85006714 197.80025452 293.85006714 196.48025452 293.85006714 195.12025452 C295.17006714 195.12025452 296.49006714 195.12025452 297.85006714 195.12025452 C297.85006714 194.46025452 297.85006714 193.80025452 297.85006714 193.12025452 C298.84006714 193.12025452 299.83006714 193.12025452 300.85006714 193.12025452 C300.85006714 191.47025452 300.85006714 189.82025452 300.85006714 188.12025452 C302.17006714 188.12025452 303.49006714 188.12025452 304.85006714 188.12025452 C304.85006714 187.46025452 304.85006714 186.80025452 304.85006714 186.12025452 C305.84006714 186.12025452 306.83006714 186.12025452 307.85006714 186.12025452 C307.85006714 184.47025452 307.85006714 182.82025452 307.85006714 181.12025452 C309.17006714 181.12025452 310.49006714 181.12025452 311.85006714 181.12025452 C311.85006714 179.80025452 311.85006714 178.48025452 311.85006714 177.12025452 C312.51006714 177.12025452 313.17006714 177.12025452 313.85006714 177.12025452 C314.18006714 176.13025452 314.51006714 175.14025452 314.85006714 174.12025452 C316.17006714 174.12025452 317.49006714 174.12025452 318.85006714 174.12025452 C318.85006714 172.80025452 318.85006714 171.48025452 318.85006714 170.12025452 C319.51006714 170.12025452 320.17006714 170.12025452 320.85006714 170.12025452 C320.85006714 169.46025452 320.85006714 168.80025452 320.85006714 168.12025452 C322.83006714 167.62525452 322.83006714 167.62525452 324.85006714 167.12025452 C325.18006714 165.80025452 325.51006714 164.48025452 325.85006714 163.12025452 C326.51006714 163.12025452 327.17006714 163.12025452 327.85006714 163.12025452 C327.85006714 162.46025452 327.85006714 161.80025452 327.85006714 161.12025452 C329.50006714 161.12025452 331.15006714 161.12025452 332.85006714 161.12025452 C332.85006714 159.47025452 332.85006714 157.82025452 332.85006714 156.12025452 C333.51006714 156.12025452 334.17006714 156.12025452 334.85006714 156.12025452 C334.85006714 155.46025452 334.85006714 154.80025452 334.85006714 154.12025452 C336.17006714 154.12025452 337.49006714 154.12025452 338.85006714 154.12025452 C339.18006714 152.47025452 339.51006714 150.82025452 339.85006714 149.12025452 C340.51006714 149.12025452 341.17006714 149.12025452 341.85006714 149.12025452 C341.85006714 148.46025452 341.85006714 147.80025452 341.85006714 147.12025452 C343.17006714 147.12025452 344.49006714 147.12025452 345.85006714 147.12025452 C345.85006714 145.80025452 345.85006714 144.48025452 345.85006714 143.12025452 C346.84006714 142.79025452 347.83006714 142.46025452 348.85006714 142.12025452 C349.51006714 142.45025452 350.17006714 142.78025452 350.85006714 143.12025452 C350.85006714 142.13025452 350.85006714 141.14025452 350.85006714 140.12025452 C351.51006714 140.12025452 352.17006714 140.12025452 352.85006714 140.12025452 C352.85006714 138.80025452 352.85006714 137.48025452 352.85006714 136.12025452 C354.50006714 136.12025452 356.15006714 136.12025452 357.85006714 136.12025452 C357.85006714 135.13025452 357.85006714 134.14025452 357.85006714 133.12025452 C358.51006714 133.12025452 359.17006714 133.12025452 359.85006714 133.12025452 C359.85006714 131.80025452 359.85006714 130.48025452 359.85006714 129.12025452 C361.17006714 129.12025452 362.49006714 129.12025452 363.85006714 129.12025452 C363.85006714 128.46025452 363.85006714 127.80025452 363.85006714 127.12025452 C364.51006714 126.79025452 365.17006714 126.46025452 365.85006714 126.12025452 C366.50220006 124.09562197 366.50220006 124.09562197 366.85006714 122.12025452 C368.17006714 122.12025452 369.49006714 122.12025452 370.85006714 122.12025452 C370.85006714 121.46025452 370.85006714 120.80025452 370.85006714 120.12025452 C371.84006714 120.12025452 372.83006714 120.12025452 373.85006714 120.12025452 C373.85006714 118.47025452 373.85006714 116.82025452 373.85006714 115.12025452 C375.17006714 115.12025452 376.49006714 115.12025452 377.85006714 115.12025452 C377.85006714 114.46025452 377.85006714 113.80025452 377.85006714 113.12025452 C378.51006714 113.12025452 379.17006714 113.12025452 379.85006714 113.12025452 C380.18006714 111.47025452 380.51006714 109.82025452 380.85006714 108.12025452 C382.17006714 108.12025452 383.49006714 108.12025452 384.85006714 108.12025452 C384.85006714 107.46025452 384.85006714 106.80025452 384.85006714 106.12025452 C385.51006714 106.12025452 386.17006714 106.12025452 386.85006714 106.12025452 C386.85006714 104.80025452 386.85006714 103.48025452 386.85006714 102.12025452 C387.48944214 101.99650452 388.12881714 101.87275452 388.78756714 101.74525452 C389.46819214 101.53900452 390.14881714 101.33275452 390.85006714 101.12025452 C391.18006714 100.46025452 391.51006714 99.80025452 391.85006714 99.12025452 C392.51006714 99.12025452 393.17006714 99.12025452 393.85006714 99.12025452 C393.85006714 97.80025452 393.85006714 96.48025452 393.85006714 95.12025452 C398.47006714 95.12025452 403.09006714 95.12025452 407.85006714 95.12025452 C407.85006714 96.44025452 407.85006714 97.76025452 407.85006714 99.12025452 C409.17006714 99.12025452 410.49006714 99.12025452 411.85006714 99.12025452 C411.85006714 100.11025452 411.85006714 101.10025452 411.85006714 102.12025452 C412.51006714 102.12025452 413.17006714 102.12025452 413.85006714 102.12025452 C413.85006714 103.44025452 413.85006714 104.76025452 413.85006714 106.12025452 C415.50006714 106.12025452 417.15006714 106.12025452 418.85006714 106.12025452 C418.85006714 106.78025452 418.85006714 107.44025452 418.85006714 108.12025452 C419.51006714 108.12025452 420.17006714 108.12025452 420.85006714 108.12025452 C420.85006714 109.77025452 420.85006714 111.42025452 420.85006714 113.12025452 C421.63381714 113.05837952 422.41756714 112.99650452 423.22506714 112.93275452 C424.09131714 112.99462952 424.95756714 113.05650452 425.85006714 113.12025452 C427.85006714 116.12025452 427.85006714 116.12025452 427.85006714 120.12025452 C429.50006714 120.12025452 431.15006714 120.12025452 432.85006714 120.12025452 C432.85006714 120.78025452 432.85006714 121.44025452 432.85006714 122.12025452 C433.51006714 122.12025452 434.17006714 122.12025452 434.85006714 122.12025452 C434.85006714 123.77025452 434.85006714 125.42025452 434.85006714 127.12025452 C436.17006714 127.12025452 437.49006714 127.12025452 438.85006714 127.12025452 C438.85006714 127.78025452 438.85006714 128.44025452 438.85006714 129.12025452 C439.84006714 129.45025452 440.83006714 129.78025452 441.85006714 130.12025452 C441.85006714 131.11025452 441.85006714 132.10025452 441.85006714 133.12025452 C443.17006714 133.12025452 444.49006714 133.12025452 445.85006714 133.12025452 C445.85006714 134.11025452 445.85006714 135.10025452 445.85006714 136.12025452 C446.84006714 136.12025452 447.83006714 136.12025452 448.85006714 136.12025452 C448.85006714 137.44025452 448.85006714 138.76025452 448.85006714 140.12025452 C450.17006714 140.12025452 451.49006714 140.12025452 452.85006714 140.12025452 C452.85006714 141.11025452 452.85006714 142.10025452 452.85006714 143.12025452 C453.51006714 143.12025452 454.17006714 143.12025452 454.85006714 143.12025452 C455.18006714 144.11025452 455.51006714 145.10025452 455.85006714 146.12025452 C457.86515072 146.85349248 457.86515072 146.85349248 459.85006714 147.12025452 C459.85006714 147.78025452 459.85006714 148.44025452 459.85006714 149.12025452 C460.51006714 149.12025452 461.17006714 149.12025452 461.85006714 149.12025452 C462.18006714 150.77025452 462.51006714 152.42025452 462.85006714 154.12025452 C464.17006714 154.12025452 465.49006714 154.12025452 466.85006714 154.12025452 C466.85006714 154.78025452 466.85006714 155.44025452 466.85006714 156.12025452 C467.51006714 156.12025452 468.17006714 156.12025452 468.85006714 156.12025452 C468.85006714 157.77025452 468.85006714 159.42025452 468.85006714 161.12025452 C470.50006714 161.12025452 472.15006714 161.12025452 473.85006714 161.12025452 C473.85006714 161.78025452 473.85006714 162.44025452 473.85006714 163.12025452 C474.51006714 163.12025452 475.17006714 163.12025452 475.85006714 163.12025452 C475.85006714 164.77025452 475.85006714 166.42025452 475.85006714 168.12025452 C476.63381714 168.26462952 477.41756714 168.40900452 478.22506714 168.55775452 C480.85006714 169.12025452 480.85006714 169.12025452 482.85006714 170.12025452 C482.85006714 171.44025452 482.85006714 172.76025452 482.85006714 174.12025452 C484.17006714 174.12025452 485.49006714 174.12025452 486.85006714 174.12025452 C486.85006714 175.11025452 486.85006714 176.10025452 486.85006714 177.12025452 C487.84006714 177.45025452 488.83006714 177.78025452 489.85006714 178.12025452 C489.85006714 179.11025452 489.85006714 180.10025452 489.85006714 181.12025452 C491.17006714 181.12025452 492.49006714 181.12025452 493.85006714 181.12025452 C493.85006714 182.44025452 493.85006714 183.76025452 493.85006714 185.12025452 C496.16006714 186.11025452 498.47006714 187.10025452 500.85006714 188.12025452 C500.85006714 189.44025452 500.85006714 190.76025452 500.85006714 192.12025452 C503.16006714 193.11025452 505.47006714 194.10025452 507.85006714 195.12025452 C507.85006714 196.44025452 507.85006714 197.76025452 507.85006714 199.12025452 C509.17006714 199.45025452 510.49006714 199.78025452 511.85006714 200.12025452 C511.85006714 200.78025452 511.85006714 201.44025452 511.85006714 202.12025452 C512.84006714 202.12025452 513.83006714 202.12025452 514.85006714 202.12025452 C514.85006714 203.44025452 514.85006714 204.76025452 514.85006714 206.12025452 C516.17006714 206.12025452 517.49006714 206.12025452 518.85006714 206.12025452 C518.85006714 207.11025452 518.85006714 208.10025452 518.85006714 209.12025452 C519.84006714 209.45025452 520.83006714 209.78025452 521.85006714 210.12025452 C521.52006714 211.11025452 521.19006714 212.10025452 520.85006714 213.12025452 C521.63381714 213.26462952 522.41756714 213.40900452 523.22506714 213.55775452 C525.85006714 214.12025452 525.85006714 214.12025452 527.85006714 215.12025452 C527.85006714 216.77025452 527.85006714 218.42025452 527.85006714 220.12025452 C528.84006714 220.12025452 529.83006714 220.12025452 530.85006714 220.12025452 C530.85006714 222.43025452 530.85006714 224.74025452 530.85006714 227.12025452 C529.86006714 227.12025452 528.87006714 227.12025452 527.85006714 227.12025452 C527.85006714 227.78025452 527.85006714 228.44025452 527.85006714 229.12025452 C527.19006714 229.12025452 526.53006714 229.12025452 525.85006714 229.12025452 C525.85006714 229.78025452 525.85006714 230.44025452 525.85006714 231.12025452 C525.19006714 231.12025452 524.53006714 231.12025452 523.85006714 231.12025452 C523.85006714 231.78025452 523.85006714 232.44025452 523.85006714 233.12025452 C523.19006714 233.12025452 522.53006714 233.12025452 521.85006714 233.12025452 C521.85006714 234.11025452 521.85006714 235.10025452 521.85006714 236.12025452 C520.86006714 236.12025452 519.87006714 236.12025452 518.85006714 236.12025452 C518.85006714 236.78025452 518.85006714 237.44025452 518.85006714 238.12025452 C518.19006714 238.12025452 517.53006714 238.12025452 516.85006714 238.12025452 C516.85006714 238.78025452 516.85006714 239.44025452 516.85006714 240.12025452 C516.19006714 240.12025452 515.53006714 240.12025452 514.85006714 240.12025452 C514.85006714 241.11025452 514.85006714 242.10025452 514.85006714 243.12025452 C513.86006714 243.12025452 512.87006714 243.12025452 511.85006714 243.12025452 C511.85006714 244.44025452 511.85006714 245.76025452 511.85006714 247.12025452 C510.53006714 247.12025452 509.21006714 247.12025452 507.85006714 247.12025452 C507.85006714 247.78025452 507.85006714 248.44025452 507.85006714 249.12025452 C507.19006714 249.12025452 506.53006714 249.12025452 505.85006714 249.12025452 C505.52006714 250.77025452 505.19006714 252.42025452 504.85006714 254.12025452 C503.53006714 254.12025452 502.21006714 254.12025452 500.85006714 254.12025452 C500.85006714 254.78025452 500.85006714 255.44025452 500.85006714 256.12025452 C500.19006714 256.12025452 499.53006714 256.12025452 498.85006714 256.12025452 C498.85006714 257.77025452 498.85006714 259.42025452 498.85006714 261.12025452 C497.20006714 261.12025452 495.55006714 261.12025452 493.85006714 261.12025452 C493.85006714 261.78025452 493.85006714 262.44025452 493.85006714 263.12025452 C492.53006714 263.12025452 491.21006714 263.12025452 489.85006714 263.12025452 C489.85006714 264.77025452 489.85006714 266.42025452 489.85006714 268.12025452 C488.86006714 268.12025452 487.87006714 268.12025452 486.85006714 268.12025452 C486.85006714 268.78025452 486.85006714 269.44025452 486.85006714 270.12025452 C485.53006714 270.12025452 484.21006714 270.12025452 482.85006714 270.12025452 C482.70569214 270.90400452 482.56131714 271.68775452 482.41256714 272.49525452 C481.85006714 275.12025452 481.85006714 275.12025452 480.85006714 277.12025452 C479.20006714 277.12025452 477.55006714 277.12025452 475.85006714 277.12025452 C475.85006714 278.44025452 475.85006714 279.76025452 475.85006714 281.12025452 C475.19006714 281.12025452 474.53006714 281.12025452 473.85006714 281.12025452 C473.85006714 282.11025452 473.85006714 283.10025452 473.85006714 284.12025452 C472.20006714 284.12025452 470.55006714 284.12025452 468.85006714 284.12025452 C468.85006714 285.44025452 468.85006714 286.76025452 468.85006714 288.12025452 C468.19006714 288.12025452 467.53006714 288.12025452 466.85006714 288.12025452 C466.85006714 288.78025452 466.85006714 289.44025452 466.85006714 290.12025452 C465.20006714 290.45025452 463.55006714 290.78025452 461.85006714 291.12025452 C461.85006714 292.44025452 461.85006714 293.76025452 461.85006714 295.12025452 C461.19006714 295.12025452 460.53006714 295.12025452 459.85006714 295.12025452 C459.85006714 295.78025452 459.85006714 296.44025452 459.85006714 297.12025452 C458.53006714 297.12025452 457.21006714 297.12025452 455.85006714 297.12025452 C455.52006714 298.77025452 455.19006714 300.42025452 454.85006714 302.12025452 C454.19006714 302.12025452 453.53006714 302.12025452 452.85006714 302.12025452 C452.85006714 302.78025452 452.85006714 303.44025452 452.85006714 304.12025452 C451.53006714 304.12025452 450.21006714 304.12025452 448.85006714 304.12025452 C448.85006714 305.77025452 448.85006714 307.42025452 448.85006714 309.12025452 C447.86006714 309.12025452 446.87006714 309.12025452 445.85006714 309.12025452 C445.85006714 309.78025452 445.85006714 310.44025452 445.85006714 311.12025452 C444.53006714 311.12025452 443.21006714 311.12025452 441.85006714 311.12025452 C441.85006714 312.77025452 441.85006714 314.42025452 441.85006714 316.12025452 C441.19006714 316.12025452 440.53006714 316.12025452 439.85006714 316.12025452 C439.85006714 316.78025452 439.85006714 317.44025452 439.85006714 318.12025452 C438.20006714 318.12025452 436.55006714 318.12025452 434.85006714 318.12025452 C434.85006714 319.44025452 434.85006714 320.76025452 434.85006714 322.12025452 C434.19006714 322.12025452 433.53006714 322.12025452 432.85006714 322.12025452 C432.85006714 323.11025452 432.85006714 324.10025452 432.85006714 325.12025452 C431.20006714 325.12025452 429.55006714 325.12025452 427.85006714 325.12025452 C427.85006714 326.44025452 427.85006714 327.76025452 427.85006714 329.12025452 C427.19006714 329.12025452 426.53006714 329.12025452 425.85006714 329.12025452 C425.52006714 330.77025452 425.19006714 332.42025452 424.85006714 334.12025452 C423.53006714 334.12025452 422.21006714 334.12025452 420.85006714 334.12025452 C420.85006714 334.78025452 420.85006714 335.44025452 420.85006714 336.12025452 C420.19006714 336.12025452 419.53006714 336.12025452 418.85006714 336.12025452 C418.52006714 337.77025452 418.19006714 339.42025452 417.85006714 341.12025452 C415.87006714 341.78025452 413.89006714 342.44025452 411.85006714 343.12025452 C411.85006714 344.44025452 411.85006714 345.76025452 411.85006714 347.12025452 C410.53006714 347.12025452 409.21006714 347.12025452 407.85006714 347.12025452 C407.85006714 348.11025452 407.85006714 349.10025452 407.85006714 350.12025452 C406.86006714 350.12025452 405.87006714 350.12025452 404.85006714 350.12025452 C404.85006714 351.44025452 404.85006714 352.76025452 404.85006714 354.12025452 C403.53006714 354.12025452 402.21006714 354.12025452 400.85006714 354.12025452 C400.85006714 355.11025452 400.85006714 356.10025452 400.85006714 357.12025452 C399.86006714 357.61525452 399.86006714 357.61525452 398.85006714 358.12025452 C398.52006714 359.11025452 398.19006714 360.10025452 397.85006714 361.12025452 C396.53006714 361.12025452 395.21006714 361.12025452 393.85006714 361.12025452 C393.85006714 361.78025452 393.85006714 362.44025452 393.85006714 363.12025452 C393.19006714 363.12025452 392.53006714 363.12025452 391.85006714 363.12025452 C391.52006714 364.77025452 391.19006714 366.42025452 390.85006714 368.12025452 C389.53006714 368.12025452 388.21006714 368.12025452 386.85006714 368.12025452 C386.85006714 368.78025452 386.85006714 369.44025452 386.85006714 370.12025452 C386.19006714 370.12025452 385.53006714 370.12025452 384.85006714 370.12025452 C384.52006714 371.77025452 384.19006714 373.42025452 383.85006714 375.12025452 C382.53006714 375.12025452 381.21006714 375.12025452 379.85006714 375.12025452 C379.85006714 375.78025452 379.85006714 376.44025452 379.85006714 377.12025452 C379.19006714 377.12025452 378.53006714 377.12025452 377.85006714 377.12025452 C377.52006714 378.77025452 377.19006714 380.42025452 376.85006714 382.12025452 C375.53006714 382.12025452 374.21006714 382.12025452 372.85006714 382.12025452 C372.85006714 382.78025452 372.85006714 383.44025452 372.85006714 384.12025452 C372.19006714 384.12025452 371.53006714 384.12025452 370.85006714 384.12025452 C370.85006714 385.44025452 370.85006714 386.76025452 370.85006714 388.12025452 C369.53006714 388.12025452 368.21006714 388.12025452 366.85006714 388.12025452 C366.52006714 389.11025452 366.19006714 390.10025452 365.85006714 391.12025452 C365.19006714 391.12025452 364.53006714 391.12025452 363.85006714 391.12025452 C363.85006714 392.44025452 363.85006714 393.76025452 363.85006714 395.12025452 C362.53006714 395.12025452 361.21006714 395.12025452 359.85006714 395.12025452 C359.85006714 396.11025452 359.85006714 397.10025452 359.85006714 398.12025452 C359.19006714 398.12025452 358.53006714 398.12025452 357.85006714 398.12025452 C357.52006714 399.44025452 357.19006714 400.76025452 356.85006714 402.12025452 C355.53006714 402.12025452 354.21006714 402.12025452 352.85006714 402.12025452 C352.85006714 402.78025452 352.85006714 403.44025452 352.85006714 404.12025452 C352.19006714 404.12025452 351.53006714 404.12025452 350.85006714 404.12025452 C350.52006714 405.77025452 350.19006714 407.42025452 349.85006714 409.12025452 C348.53006714 409.12025452 347.21006714 409.12025452 345.85006714 409.12025452 C345.85006714 409.78025452 345.85006714 410.44025452 345.85006714 411.12025452 C345.19006714 411.12025452 344.53006714 411.12025452 343.85006714 411.12025452 C343.52006714 412.77025452 343.19006714 414.42025452 342.85006714 416.12025452 C341.53006714 416.12025452 340.21006714 416.12025452 338.85006714 416.12025452 C338.85006714 416.78025452 338.85006714 417.44025452 338.85006714 418.12025452 C338.19006714 418.12025452 337.53006714 418.12025452 336.85006714 418.12025452 C336.52006714 419.77025452 336.19006714 421.42025452 335.85006714 423.12025452 C334.53006714 423.12025452 333.21006714 423.12025452 331.85006714 423.12025452 C331.85006714 423.78025452 331.85006714 424.44025452 331.85006714 425.12025452 C331.19006714 425.12025452 330.53006714 425.12025452 329.85006714 425.12025452 C329.85006714 426.44025452 329.85006714 427.76025452 329.85006714 429.12025452 C328.53006714 429.12025452 327.21006714 429.12025452 325.85006714 429.12025452 C325.85006714 430.11025452 325.85006714 431.10025452 325.85006714 432.12025452 C324.86006714 432.12025452 323.87006714 432.12025452 322.85006714 432.12025452 C322.85006714 433.44025452 322.85006714 434.76025452 322.85006714 436.12025452 C321.53006714 436.12025452 320.21006714 436.12025452 318.85006714 436.12025452 C318.85006714 437.11025452 318.85006714 438.10025452 318.85006714 439.12025452 C317.86006714 439.61525452 317.86006714 439.61525452 316.85006714 440.12025452 C316.52006714 441.11025452 316.19006714 442.10025452 315.85006714 443.12025452 C314.53006714 443.12025452 313.21006714 443.12025452 311.85006714 443.12025452 C311.85006714 443.78025452 311.85006714 444.44025452 311.85006714 445.12025452 C311.19006714 445.12025452 310.53006714 445.12025452 309.85006714 445.12025452 C309.85006714 446.44025452 309.85006714 447.76025452 309.85006714 449.12025452 C413.47006714 449.45025452 517.09006714 449.78025452 623.85006714 450.12025452 C623.85006714 510.18025452 623.85006714 570.24025452 623.85006714 632.12025452 C621.54006714 632.12025452 619.23006714 632.12025452 616.85006714 632.12025452 C616.85006714 632.78025452 616.85006714 633.44025452 616.85006714 634.12025452 C613.85006714 635.12025452 613.85006714 635.12025452 610.85006714 634.12025452 C610.85006714 633.46025452 610.85006714 632.80025452 610.85006714 632.12025452 C512.18006714 632.12025452 413.51006714 632.12025452 311.85006714 632.12025452 C311.52006714 633.11025452 311.19006714 634.10025452 310.85006714 635.12025452 C305.90006714 635.12025452 300.95006714 635.12025452 295.85006714 635.12025452 C295.52006714 636.44025452 295.19006714 637.76025452 294.85006714 639.12025452 C289.90006714 639.12025452 284.95006714 639.12025452 279.85006714 639.12025452 C279.85006714 639.78025452 279.85006714 640.44025452 279.85006714 641.12025452 C276.88006714 641.12025452 273.91006714 641.12025452 270.85006714 641.12025452 C270.85006714 642.77025452 270.85006714 644.42025452 270.85006714 646.12025452 C268.54006714 646.12025452 266.23006714 646.12025452 263.85006714 646.12025452 C263.85006714 646.78025452 263.85006714 647.44025452 263.85006714 648.12025452 C261.54006714 648.12025452 259.23006714 648.12025452 256.85006714 648.12025452 C256.52006714 649.77025452 256.19006714 651.42025452 255.85006714 653.12025452 C253.87006714 653.12025452 251.89006714 653.12025452 249.85006714 653.12025452 C249.85006714 653.78025452 249.85006714 654.44025452 249.85006714 655.12025452 C247.87006714 655.12025452 245.89006714 655.12025452 243.85006714 655.12025452 C243.52006714 656.44025452 243.19006714 657.76025452 242.85006714 659.12025452 C241.53006714 659.45025452 240.21006714 659.78025452 238.85006714 660.12025452 C238.85006714 660.78025452 238.85006714 661.44025452 238.85006714 662.12025452 C237.20006714 662.12025452 235.55006714 662.12025452 233.85006714 662.12025452 C233.85006714 662.78025452 233.85006714 663.44025452 233.85006714 664.12025452 C233.19006714 664.12025452 232.53006714 664.12025452 231.85006714 664.12025452 C231.85006714 664.78025452 231.85006714 665.44025452 231.85006714 666.12025452 C231.19006714 666.12025452 230.53006714 666.12025452 229.85006714 666.12025452 C229.85006714 667.11025452 229.85006714 668.10025452 229.85006714 669.12025452 C228.20006714 669.12025452 226.55006714 669.12025452 224.85006714 669.12025452 C224.85006714 670.44025452 224.85006714 671.76025452 224.85006714 673.12025452 C224.19006714 673.12025452 223.53006714 673.12025452 222.85006714 673.12025452 C222.52006714 674.11025452 222.19006714 675.10025452 221.85006714 676.12025452 C220.86006714 676.12025452 219.87006714 676.12025452 218.85006714 676.12025452 C218.52006714 677.44025452 218.19006714 678.76025452 217.85006714 680.12025452 C217.19006714 680.12025452 216.53006714 680.12025452 215.85006714 680.12025452 C215.85006714 680.78025452 215.85006714 681.44025452 215.85006714 682.12025452 C214.53006714 682.12025452 213.21006714 682.12025452 211.85006714 682.12025452 C211.85006714 683.77025452 211.85006714 685.42025452 211.85006714 687.12025452 C210.86006714 687.12025452 209.87006714 687.12025452 208.85006714 687.12025452 C208.85006714 687.78025452 208.85006714 688.44025452 208.85006714 689.12025452 C208.19006714 689.12025452 207.53006714 689.12025452 206.85006714 689.12025452 C206.85006714 689.78025452 206.85006714 690.44025452 206.85006714 691.12025452 C206.19006714 691.12025452 205.53006714 691.12025452 204.85006714 691.12025452 C204.85006714 692.77025452 204.85006714 694.42025452 204.85006714 696.12025452 C204.19006714 696.12025452 203.53006714 696.12025452 202.85006714 696.12025452 C202.52006714 697.77025452 202.19006714 699.42025452 201.85006714 701.12025452 C200.53006714 701.12025452 199.21006714 701.12025452 197.85006714 701.12025452 C197.85006714 703.10025452 197.85006714 705.08025452 197.85006714 707.12025452 C197.19006714 707.12025452 196.53006714 707.12025452 195.85006714 707.12025452 C195.52006714 708.77025452 195.19006714 710.42025452 194.85006714 712.12025452 C193.53006714 712.12025452 192.21006714 712.12025452 190.85006714 712.12025452 C190.85006714 715.09025452 190.85006714 718.06025452 190.85006714 721.12025452 C120.89006714 721.12025452 50.93006714 721.12025452 -21.14993286 721.12025452 C-21.14993286 720.46025452 -21.14993286 719.80025452 -21.14993286 719.12025452 C-21.80993286 719.12025452 -22.46993286 719.12025452 -23.14993286 719.12025452 C-23.14993286 718.46025452 -23.14993286 717.80025452 -23.14993286 717.12025452 C-23.80993286 717.12025452 -24.46993286 717.12025452 -25.14993286 717.12025452 C-25.14993286 715.47025452 -25.14993286 713.82025452 -25.14993286 712.12025452 C-25.80993286 712.12025452 -26.46993286 712.12025452 -27.14993286 712.12025452 C-27.14993286 710.47025452 -27.14993286 708.82025452 -27.14993286 707.12025452 C-28.79993286 707.12025452 -30.44993286 707.12025452 -32.14993286 707.12025452 C-32.14993286 705.14025452 -32.14993286 703.16025452 -32.14993286 701.12025452 C-32.80993286 701.12025452 -33.46993286 701.12025452 -34.14993286 701.12025452 C-34.14993286 699.47025452 -34.14993286 697.82025452 -34.14993286 696.12025452 C-35.79993286 696.12025452 -37.44993286 696.12025452 -39.14993286 696.12025452 C-39.14993286 694.47025452 -39.14993286 692.82025452 -39.14993286 691.12025452 C-39.80993286 691.12025452 -40.46993286 691.12025452 -41.14993286 691.12025452 C-41.14993286 689.80025452 -41.14993286 688.48025452 -41.14993286 687.12025452 C-42.79993286 687.12025452 -44.44993286 687.12025452 -46.14993286 687.12025452 C-46.14993286 685.47025452 -46.14993286 683.82025452 -46.14993286 682.12025452 C-46.80993286 682.12025452 -47.46993286 682.12025452 -48.14993286 682.12025452 C-48.14993286 681.46025452 -48.14993286 680.80025452 -48.14993286 680.12025452 C-49.79993286 679.79025452 -51.44993286 679.46025452 -53.14993286 679.12025452 C-53.80993286 677.14025452 -54.46993286 675.16025452 -55.14993286 673.12025452 C-56.46993286 673.12025452 -57.78993286 673.12025452 -59.14993286 673.12025452 C-59.14993286 671.80025452 -59.14993286 670.48025452 -59.14993286 669.12025452 C-60.13993286 669.12025452 -61.12993286 669.12025452 -62.14993286 669.12025452 C-62.14993286 668.13025452 -62.14993286 667.14025452 -62.14993286 666.12025452 C-63.46993286 666.12025452 -64.78993286 666.12025452 -66.14993286 666.12025452 C-66.14993286 665.46025452 -66.14993286 664.80025452 -66.14993286 664.12025452 C-66.80993286 664.12025452 -67.46993286 664.12025452 -68.14993286 664.12025452 C-68.14993286 663.46025452 -68.14993286 662.80025452 -68.14993286 662.12025452 C-69.79993286 662.12025452 -71.44993286 662.12025452 -73.14993286 662.12025452 C-73.14993286 661.46025452 -73.14993286 660.80025452 -73.14993286 660.12025452 C-74.46993286 659.79025452 -75.78993286 659.46025452 -77.14993286 659.12025452 C-77.47993286 657.80025452 -77.80993286 656.48025452 -78.14993286 655.12025452 C-80.12993286 655.12025452 -82.10993286 655.12025452 -84.14993286 655.12025452 C-84.14993286 653.47025452 -84.14993286 651.82025452 -84.14993286 650.12025452 C-85.79993286 650.12025452 -87.44993286 650.12025452 -89.14993286 650.12025452 C-89.14993286 649.46025452 -89.14993286 648.80025452 -89.14993286 648.12025452 C-92.11993286 648.12025452 -95.08993286 648.12025452 -98.14993286 648.12025452 C-98.14993286 647.46025452 -98.14993286 646.80025452 -98.14993286 646.12025452 C-100.12993286 646.12025452 -102.10993286 646.12025452 -104.14993286 646.12025452 C-104.47993286 644.47025452 -104.80993286 642.82025452 -105.14993286 641.12025452 C-108.11993286 641.12025452 -111.08993286 641.12025452 -114.14993286 641.12025452 C-114.14993286 640.46025452 -114.14993286 639.80025452 -114.14993286 639.12025452 C-117.77993286 639.12025452 -121.40993286 639.12025452 -125.14993286 639.12025452 C-125.14993286 638.46025452 -125.14993286 637.80025452 -125.14993286 637.12025452 C-127.93437857 636.19210595 -129.85433158 635.9472821 -132.74758911 635.83900452 C-134.07306763 635.7829303 -134.07306763 635.7829303 -135.42532349 635.72572327 C-137.28729707 635.65526316 -139.14927627 635.58495128 -141.01126099 635.51478577 C-141.89362427 635.47740295 -142.77598755 635.44002014 -143.68508911 635.40150452 C-144.89757324 635.35606506 -144.89757324 635.35606506 -146.134552 635.30970764 C-148.14993286 635.12025452 -148.14993286 635.12025452 -150.14993286 634.12025452 C-150.14993286 633.46025452 -150.14993286 632.80025452 -150.14993286 632.12025452 C-251.12993286 632.12025452 -352.10993286 632.12025452 -456.14993286 632.12025452 C-456.14993286 572.06025452 -456.14993286 512.00025452 -456.14993286 450.12025452 C-352.19993286 450.12025452 -248.24993286 450.12025452 -141.14993286 450.12025452 C-141.14993286 448.47025452 -141.14993286 446.82025452 -141.14993286 445.12025452 C-142.79993286 445.12025452 -144.44993286 445.12025452 -146.14993286 445.12025452 C-146.14993286 444.46025452 -146.14993286 443.80025452 -146.14993286 443.12025452 C-146.80993286 443.12025452 -147.46993286 443.12025452 -148.14993286 443.12025452 C-148.14993286 441.80025452 -148.14993286 440.48025452 -148.14993286 439.12025452 C-149.79993286 438.79025452 -151.44993286 438.46025452 -153.14993286 438.12025452 C-153.14993286 437.46025452 -153.14993286 436.80025452 -153.14993286 436.12025452 C-153.80993286 436.12025452 -154.46993286 436.12025452 -155.14993286 436.12025452 C-155.14993286 434.80025452 -155.14993286 433.48025452 -155.14993286 432.12025452 C-156.79993286 431.79025452 -158.44993286 431.46025452 -160.14993286 431.12025452 C-160.14993286 430.46025452 -160.14993286 429.80025452 -160.14993286 429.12025452 C-160.80993286 429.12025452 -161.46993286 429.12025452 -162.14993286 429.12025452 C-162.14993286 427.80025452 -162.14993286 426.48025452 -162.14993286 425.12025452 C-163.46993286 425.12025452 -164.78993286 425.12025452 -166.14993286 425.12025452 C-166.14993286 424.46025452 -166.14993286 423.80025452 -166.14993286 423.12025452 C-167.13993286 422.79025452 -168.12993286 422.46025452 -169.14993286 422.12025452 C-169.14993286 420.80025452 -169.14993286 419.48025452 -169.14993286 418.12025452 C-170.46993286 418.12025452 -171.78993286 418.12025452 -173.14993286 418.12025452 C-173.14993286 417.46025452 -173.14993286 416.80025452 -173.14993286 416.12025452 C-174.13993286 415.79025452 -175.12993286 415.46025452 -176.14993286 415.12025452 C-176.14993286 413.80025452 -176.14993286 412.48025452 -176.14993286 411.12025452 C-177.46993286 411.12025452 -178.78993286 411.12025452 -180.14993286 411.12025452 C-180.14993286 410.46025452 -180.14993286 409.80025452 -180.14993286 409.12025452 C-180.80993286 409.12025452 -181.46993286 409.12025452 -182.14993286 409.12025452 C-182.14993286 407.47025452 -182.14993286 405.82025452 -182.14993286 404.12025452 C-183.79993286 404.12025452 -185.44993286 404.12025452 -187.14993286 404.12025452 C-187.14993286 403.46025452 -187.14993286 402.80025452 -187.14993286 402.12025452 C-187.80993286 402.12025452 -188.46993286 402.12025452 -189.14993286 402.12025452 C-189.14993286 400.80025452 -189.14993286 399.48025452 -189.14993286 398.12025452 C-190.79993286 397.79025452 -192.44993286 397.46025452 -194.14993286 397.12025452 C-194.14993286 396.46025452 -194.14993286 395.80025452 -194.14993286 395.12025452 C-194.80993286 395.12025452 -195.46993286 395.12025452 -196.14993286 395.12025452 C-196.14993286 393.80025452 -196.14993286 392.48025452 -196.14993286 391.12025452 C-197.46993286 391.12025452 -198.78993286 391.12025452 -200.14993286 391.12025452 C-201.89993286 389.87025452 -201.89993286 389.87025452 -203.14993286 388.12025452 C-203.14993286 386.80025452 -203.14993286 385.48025452 -203.14993286 384.12025452 C-204.46993286 384.12025452 -205.78993286 384.12025452 -207.14993286 384.12025452 C-207.14993286 383.46025452 -207.14993286 382.80025452 -207.14993286 382.12025452 C-208.13993286 381.79025452 -209.12993286 381.46025452 -210.14993286 381.12025452 C-210.14993286 379.80025452 -210.14993286 378.48025452 -210.14993286 377.12025452 C-211.46993286 377.12025452 -212.78993286 377.12025452 -214.14993286 377.12025452 C-214.14993286 376.46025452 -214.14993286 375.80025452 -214.14993286 375.12025452 C-215.13993286 374.79025452 -216.12993286 374.46025452 -217.14993286 374.12025452 C-217.14993286 372.80025452 -217.14993286 371.48025452 -217.14993286 370.12025452 C-218.46993286 370.12025452 -219.78993286 370.12025452 -221.14993286 370.12025452 C-221.14993286 369.46025452 -221.14993286 368.80025452 -221.14993286 368.12025452 C-221.80993286 368.12025452 -222.46993286 368.12025452 -223.14993286 368.12025452 C-223.14993286 366.47025452 -223.14993286 364.82025452 -223.14993286 363.12025452 C-224.79993286 363.12025452 -226.44993286 363.12025452 -228.14993286 363.12025452 C-228.14993286 362.46025452 -228.14993286 361.80025452 -228.14993286 361.12025452 C-228.80993286 361.12025452 -229.46993286 361.12025452 -230.14993286 361.12025452 C-230.14993286 359.80025452 -230.14993286 358.48025452 -230.14993286 357.12025452 C-231.79993286 356.79025452 -233.44993286 356.46025452 -235.14993286 356.12025452 C-235.14993286 355.46025452 -235.14993286 354.80025452 -235.14993286 354.12025452 C-235.80993286 354.12025452 -236.46993286 354.12025452 -237.14993286 354.12025452 C-237.14993286 352.80025452 -237.14993286 351.48025452 -237.14993286 350.12025452 C-238.79993286 349.79025452 -240.44993286 349.46025452 -242.14993286 349.12025452 C-242.14993286 348.46025452 -242.14993286 347.80025452 -242.14993286 347.12025452 C-242.80993286 347.12025452 -243.46993286 347.12025452 -244.14993286 347.12025452 C-244.14993286 345.80025452 -244.14993286 344.48025452 -244.14993286 343.12025452 C-245.46993286 343.12025452 -246.78993286 343.12025452 -248.14993286 343.12025452 C-248.14993286 342.46025452 -248.14993286 341.80025452 -248.14993286 341.12025452 C-249.13993286 340.79025452 -250.12993286 340.46025452 -251.14993286 340.12025452 C-251.14993286 338.80025452 -251.14993286 337.48025452 -251.14993286 336.12025452 C-252.46993286 336.12025452 -253.78993286 336.12025452 -255.14993286 336.12025452 C-255.14993286 335.46025452 -255.14993286 334.80025452 -255.14993286 334.12025452 C-256.13993286 333.79025452 -257.12993286 333.46025452 -258.14993286 333.12025452 C-258.14993286 331.80025452 -258.14993286 330.48025452 -258.14993286 329.12025452 C-259.46993286 329.12025452 -260.78993286 329.12025452 -262.14993286 329.12025452 C-262.14993286 327.80025452 -262.14993286 326.48025452 -262.14993286 325.12025452 C-262.80993286 325.12025452 -263.46993286 325.12025452 -264.14993286 325.12025452 C-264.14993286 324.13025452 -264.14993286 323.14025452 -264.14993286 322.12025452 C-265.79993286 322.12025452 -267.44993286 322.12025452 -269.14993286 322.12025452 C-269.14993286 320.80025452 -269.14993286 319.48025452 -269.14993286 318.12025452 C-269.80993286 318.12025452 -270.46993286 318.12025452 -271.14993286 318.12025452 C-271.14993286 317.46025452 -271.14993286 316.80025452 -271.14993286 316.12025452 C-272.79993286 315.79025452 -274.44993286 315.46025452 -276.14993286 315.12025452 C-276.14993286 313.80025452 -276.14993286 312.48025452 -276.14993286 311.12025452 C-276.80993286 311.12025452 -277.46993286 311.12025452 -278.14993286 311.12025452 C-278.14993286 310.46025452 -278.14993286 309.80025452 -278.14993286 309.12025452 C-279.79993286 308.79025452 -281.44993286 308.46025452 -283.14993286 308.12025452 C-283.14993286 306.80025452 -283.14993286 305.48025452 -283.14993286 304.12025452 C-284.46993286 304.12025452 -285.78993286 304.12025452 -287.14993286 304.12025452 C-287.14993286 303.46025452 -287.14993286 302.80025452 -287.14993286 302.12025452 C-287.80993286 302.12025452 -288.46993286 302.12025452 -289.14993286 302.12025452 C-289.47993286 300.47025452 -289.80993286 298.82025452 -290.14993286 297.12025452 C-291.46993286 297.12025452 -292.78993286 297.12025452 -294.14993286 297.12025452 C-294.14993286 296.46025452 -294.14993286 295.80025452 -294.14993286 295.12025452 C-294.80993286 295.12025452 -295.46993286 295.12025452 -296.14993286 295.12025452 C-296.14993286 293.47025452 -296.14993286 291.82025452 -296.14993286 290.12025452 C-297.79993286 290.12025452 -299.44993286 290.12025452 -301.14993286 290.12025452 C-301.14993286 289.46025452 -301.14993286 288.80025452 -301.14993286 288.12025452 C-301.80993286 288.12025452 -302.46993286 288.12025452 -303.14993286 288.12025452 C-303.14993286 286.80025452 -303.14993286 285.48025452 -303.14993286 284.12025452 C-304.79993286 283.79025452 -306.44993286 283.46025452 -308.14993286 283.12025452 C-308.14993286 282.46025452 -308.14993286 281.80025452 -308.14993286 281.12025452 C-308.80993286 281.12025452 -309.46993286 281.12025452 -310.14993286 281.12025452 C-310.14993286 279.80025452 -310.14993286 278.48025452 -310.14993286 277.12025452 C-311.79993286 276.79025452 -313.44993286 276.46025452 -315.14993286 276.12025452 C-315.14993286 275.46025452 -315.14993286 274.80025452 -315.14993286 274.12025452 C-315.80993286 274.12025452 -316.46993286 274.12025452 -317.14993286 274.12025452 C-317.14993286 272.80025452 -317.14993286 271.48025452 -317.14993286 270.12025452 C-318.46993286 270.12025452 -319.78993286 270.12025452 -321.14993286 270.12025452 C-321.14993286 269.46025452 -321.14993286 268.80025452 -321.14993286 268.12025452 C-322.13993286 267.79025452 -323.12993286 267.46025452 -324.14993286 267.12025452 C-324.14993286 265.80025452 -324.14993286 264.48025452 -324.14993286 263.12025452 C-325.46993286 263.12025452 -326.78993286 263.12025452 -328.14993286 263.12025452 C-328.14993286 262.46025452 -328.14993286 261.80025452 -328.14993286 261.12025452 C-328.80993286 261.12025452 -329.46993286 261.12025452 -330.14993286 261.12025452 C-330.47993286 259.47025452 -330.80993286 257.82025452 -331.14993286 256.12025452 C-332.46993286 256.12025452 -333.78993286 256.12025452 -335.14993286 256.12025452 C-335.14993286 255.46025452 -335.14993286 254.80025452 -335.14993286 254.12025452 C-335.80993286 254.12025452 -336.46993286 254.12025452 -337.14993286 254.12025452 C-337.14993286 252.47025452 -337.14993286 250.82025452 -337.14993286 249.12025452 C-338.79993286 249.12025452 -340.44993286 249.12025452 -342.14993286 249.12025452 C-342.14993286 248.46025452 -342.14993286 247.80025452 -342.14993286 247.12025452 C-342.80993286 247.12025452 -343.46993286 247.12025452 -344.14993286 247.12025452 C-344.14993286 245.80025452 -344.14993286 244.48025452 -344.14993286 243.12025452 C-345.79993286 242.79025452 -347.44993286 242.46025452 -349.14993286 242.12025452 C-349.14993286 241.46025452 -349.14993286 240.80025452 -349.14993286 240.12025452 C-349.80993286 240.12025452 -350.46993286 240.12025452 -351.14993286 240.12025452 C-351.14993286 238.80025452 -351.14993286 237.48025452 -351.14993286 236.12025452 C-352.79993286 235.79025452 -354.44993286 235.46025452 -356.14993286 235.12025452 C-356.14993286 234.46025452 -356.14993286 233.80025452 -356.14993286 233.12025452 C-356.80993286 233.12025452 -357.46993286 233.12025452 -358.14993286 233.12025452 C-358.14993286 231.80025452 -358.14993286 230.48025452 -358.14993286 229.12025452 C-359.46993286 229.12025452 -360.78993286 229.12025452 -362.14993286 229.12025452 C-362.14993286 224.50025452 -362.14993286 219.88025452 -362.14993286 215.12025452 C-360.82993286 215.12025452 -359.50993286 215.12025452 -358.14993286 215.12025452 C-358.14993286 214.46025452 -358.14993286 213.80025452 -358.14993286 213.12025452 C-357.15993286 213.12025452 -356.16993286 213.12025452 -355.14993286 213.12025452 C-355.14993286 211.80025452 -355.14993286 210.48025452 -355.14993286 209.12025452 C-353.82993286 209.12025452 -352.50993286 209.12025452 -351.14993286 209.12025452 C-351.14993286 208.13025452 -351.14993286 207.14025452 -351.14993286 206.12025452 C-350.48993286 206.12025452 -349.82993286 206.12025452 -349.14993286 206.12025452 C-349.14993286 204.80025452 -349.14993286 203.48025452 -349.14993286 202.12025452 C-347.49993286 202.12025452 -345.84993286 202.12025452 -344.14993286 202.12025452 C-343.48993286 199.81025452 -342.82993286 197.50025452 -342.14993286 195.12025452 C-340.49993286 195.12025452 -338.84993286 195.12025452 -337.14993286 195.12025452 C-337.14993286 194.46025452 -337.14993286 193.80025452 -337.14993286 193.12025452 C-336.48993286 192.79025452 -335.82993286 192.46025452 -335.14993286 192.12025452 C-335.14993286 190.80025452 -335.14993286 189.48025452 -335.14993286 188.12025452 C-333.49993286 188.12025452 -331.84993286 188.12025452 -330.14993286 188.12025452 C-330.14993286 187.46025452 -330.14993286 186.80025452 -330.14993286 186.12025452 C-329.48993286 185.79025452 -328.82993286 185.46025452 -328.14993286 185.12025452 C-327.49779994 183.09562197 -327.49779994 183.09562197 -327.14993286 181.12025452 C-326.15993286 181.12025452 -325.16993286 181.12025452 -324.14993286 181.12025452 C-324.14993286 179.80025452 -324.14993286 178.48025452 -324.14993286 177.12025452 C-323.15993286 177.12025452 -322.16993286 177.12025452 -321.14993286 177.12025452 C-321.14993286 176.13025452 -321.14993286 175.14025452 -321.14993286 174.12025452 C-319.82993286 174.12025452 -318.50993286 174.12025452 -317.14993286 174.12025452 C-317.14993286 172.80025452 -317.14993286 171.48025452 -317.14993286 170.12025452 C-316.15993286 170.12025452 -315.16993286 170.12025452 -314.14993286 170.12025452 C-314.14993286 169.46025452 -314.14993286 168.80025452 -314.14993286 168.12025452 C-312.82993286 168.12025452 -311.50993286 168.12025452 -310.14993286 168.12025452 C-310.14993286 166.47025452 -310.14993286 164.82025452 -310.14993286 163.12025452 C-309.48993286 163.12025452 -308.82993286 163.12025452 -308.14993286 163.12025452 C-308.14993286 162.46025452 -308.14993286 161.80025452 -308.14993286 161.12025452 C-306.49993286 161.12025452 -304.84993286 161.12025452 -303.14993286 161.12025452 C-303.00555786 160.33650452 -302.86118286 159.55275452 -302.71243286 158.74525452 C-302.14993286 156.12025452 -302.14993286 156.12025452 -301.14993286 154.12025452 C-299.49993286 154.12025452 -297.84993286 154.12025452 -296.14993286 154.12025452 C-296.14993286 152.47025452 -296.14993286 150.82025452 -296.14993286 149.12025452 C-295.48993286 149.12025452 -294.82993286 149.12025452 -294.14993286 149.12025452 C-294.14993286 148.46025452 -294.14993286 147.80025452 -294.14993286 147.12025452 C-292.49993286 147.12025452 -290.84993286 147.12025452 -289.14993286 147.12025452 C-289.14993286 145.80025452 -289.14993286 144.48025452 -289.14993286 143.12025452 C-288.48993286 143.12025452 -287.82993286 143.12025452 -287.14993286 143.12025452 C-287.14993286 142.13025452 -287.14993286 141.14025452 -287.14993286 140.12025452 C-285.82993286 140.12025452 -284.50993286 140.12025452 -283.14993286 140.12025452 C-282.81993286 138.80025452 -282.48993286 137.48025452 -282.14993286 136.12025452 C-280.82993286 136.12025452 -279.50993286 136.12025452 -278.14993286 136.12025452 C-277.81993286 135.13025452 -277.48993286 134.14025452 -277.14993286 133.12025452 C-276.15993286 133.12025452 -275.16993286 133.12025452 -274.14993286 133.12025452 C-274.14993286 132.46025452 -274.14993286 131.80025452 -274.14993286 131.12025452 C-273.15993286 131.12025452 -272.16993286 131.12025452 -271.14993286 131.12025452 C-271.14993286 130.46025452 -271.14993286 129.80025452 -271.14993286 129.12025452 C-270.48993286 129.12025452 -269.82993286 129.12025452 -269.14993286 129.12025452 C-269.14993286 126.81025452 -269.14993286 124.50025452 -269.14993286 122.12025452 C-267.82993286 122.12025452 -266.50993286 122.12025452 -265.14993286 122.12025452 C-264.81993286 121.46025452 -264.48993286 120.80025452 -264.14993286 120.12025452 C-263.48993286 120.12025452 -262.82993286 120.12025452 -262.14993286 120.12025452 C-261.81993286 118.47025452 -261.48993286 116.82025452 -261.14993286 115.12025452 C-259.82993286 115.12025452 -258.50993286 115.12025452 -257.14993286 115.12025452 C-257.14993286 114.46025452 -257.14993286 113.80025452 -257.14993286 113.12025452 C-256.48993286 113.12025452 -255.82993286 113.12025452 -255.14993286 113.12025452 C-254.81993286 111.47025452 -254.48993286 109.82025452 -254.14993286 108.12025452 C-253.48993286 108.12025452 -252.82993286 108.12025452 -252.14993286 108.12025452 C-251.81993286 107.46025452 -251.48993286 106.80025452 -251.14993286 106.12025452 C-249.49993286 106.12025452 -247.84993286 106.12025452 -246.14993286 106.12025452 C-246.14993286 105.46025452 -246.14993286 104.80025452 -246.14993286 104.12025452 C-245.48993286 104.12025452 -244.82993286 104.12025452 -244.14993286 104.12025452 C-244.14993286 103.13025452 -244.14993286 102.14025452 -244.14993286 101.12025452 C-243.48993286 101.12025452 -242.82993286 101.12025452 -242.14993286 101.12025452 C-242.14993286 100.46025452 -242.14993286 99.80025452 -242.14993286 99.12025452 C-241.15993286 99.12025452 -240.16993286 99.12025452 -239.14993286 99.12025452 C-239.14993286 98.46025452 -239.14993286 97.80025452 -239.14993286 97.12025452 C-238.48993286 97.12025452 -237.82993286 97.12025452 -237.14993286 97.12025452 C-237.14993286 96.46025452 -237.14993286 95.80025452 -237.14993286 95.12025452 C-234.17993286 95.12025452 -231.20993286 95.12025452 -228.14993286 95.12025452 C-228.14993286 96.44025452 -228.14993286 97.76025452 -228.14993286 99.12025452 C-226.82993286 99.12025452 -225.50993286 99.12025452 -224.14993286 99.12025452 C-222.39993286 100.37025452 -222.39993286 100.37025452 -221.14993286 102.12025452 C-221.14993286 103.44025452 -221.14993286 104.76025452 -221.14993286 106.12025452 C-219.82993286 106.12025452 -218.50993286 106.12025452 -217.14993286 106.12025452 C-217.14993286 106.78025452 -217.14993286 107.44025452 -217.14993286 108.12025452 C-216.15993286 108.45025452 -215.16993286 108.78025452 -214.14993286 109.12025452 C-214.14993286 110.44025452 -214.14993286 111.76025452 -214.14993286 113.12025452 C-212.82993286 113.12025452 -211.50993286 113.12025452 -210.14993286 113.12025452 C-210.14993286 113.78025452 -210.14993286 114.44025452 -210.14993286 115.12025452 C-209.48993286 115.12025452 -208.82993286 115.12025452 -208.14993286 115.12025452 C-208.14993286 116.77025452 -208.14993286 118.42025452 -208.14993286 120.12025452 C-206.49993286 120.12025452 -204.84993286 120.12025452 -203.14993286 120.12025452 C-203.14993286 120.78025452 -203.14993286 121.44025452 -203.14993286 122.12025452 C-202.48993286 122.12025452 -201.82993286 122.12025452 -201.14993286 122.12025452 C-201.14993286 123.44025452 -201.14993286 124.76025452 -201.14993286 126.12025452 C-199.49993286 126.45025452 -197.84993286 126.78025452 -196.14993286 127.12025452 C-196.14993286 127.78025452 -196.14993286 128.44025452 -196.14993286 129.12025452 C-195.48993286 129.12025452 -194.82993286 129.12025452 -194.14993286 129.12025452 C-194.14993286 130.44025452 -194.14993286 131.76025452 -194.14993286 133.12025452 C-192.49993286 133.45025452 -190.84993286 133.78025452 -189.14993286 134.12025452 C-189.14993286 134.78025452 -189.14993286 135.44025452 -189.14993286 136.12025452 C-188.48993286 136.12025452 -187.82993286 136.12025452 -187.14993286 136.12025452 C-187.14993286 137.44025452 -187.14993286 138.76025452 -187.14993286 140.12025452 C-185.49993286 140.45025452 -183.84993286 140.78025452 -182.14993286 141.12025452 C-182.14993286 141.78025452 -182.14993286 142.44025452 -182.14993286 143.12025452 C-181.48993286 143.12025452 -180.82993286 143.12025452 -180.14993286 143.12025452 C-180.14993286 144.44025452 -180.14993286 145.76025452 -180.14993286 147.12025452 C-178.82993286 147.12025452 -177.50993286 147.12025452 -176.14993286 147.12025452 C-176.14993286 147.78025452 -176.14993286 148.44025452 -176.14993286 149.12025452 C-175.15993286 149.45025452 -174.16993286 149.78025452 -173.14993286 150.12025452 C-173.14993286 151.44025452 -173.14993286 152.76025452 -173.14993286 154.12025452 C-171.82993286 154.12025452 -170.50993286 154.12025452 -169.14993286 154.12025452 C-169.14993286 154.78025452 -169.14993286 155.44025452 -169.14993286 156.12025452 C-168.48993286 156.12025452 -167.82993286 156.12025452 -167.14993286 156.12025452 C-166.81993286 157.77025452 -166.48993286 159.42025452 -166.14993286 161.12025452 C-164.82993286 161.12025452 -163.50993286 161.12025452 -162.14993286 161.12025452 C-162.14993286 161.78025452 -162.14993286 162.44025452 -162.14993286 163.12025452 C-161.48993286 163.12025452 -160.82993286 163.12025452 -160.14993286 163.12025452 C-160.14993286 164.77025452 -160.14993286 166.42025452 -160.14993286 168.12025452 C-159.15993286 167.79025452 -158.16993286 167.46025452 -157.14993286 167.12025452 C-156.48993286 167.45025452 -155.82993286 167.78025452 -155.14993286 168.12025452 C-155.14993286 168.78025452 -155.14993286 169.44025452 -155.14993286 170.12025452 C-154.48993286 170.12025452 -153.82993286 170.12025452 -153.14993286 170.12025452 C-153.14993286 171.44025452 -153.14993286 172.76025452 -153.14993286 174.12025452 C-151.49993286 174.45025452 -149.84993286 174.78025452 -148.14993286 175.12025452 C-148.14993286 175.78025452 -148.14993286 176.44025452 -148.14993286 177.12025452 C-147.48993286 177.12025452 -146.82993286 177.12025452 -146.14993286 177.12025452 C-146.14993286 178.44025452 -146.14993286 179.76025452 -146.14993286 181.12025452 C-144.49993286 181.45025452 -142.84993286 181.78025452 -141.14993286 182.12025452 C-141.14993286 183.11025452 -141.14993286 184.10025452 -141.14993286 185.12025452 C-139.82993286 185.45025452 -138.50993286 185.78025452 -137.14993286 186.12025452 C-137.14993286 186.78025452 -137.14993286 187.44025452 -137.14993286 188.12025452 C-136.48993286 188.12025452 -135.82993286 188.12025452 -135.14993286 188.12025452 C-135.14993286 189.77025452 -135.14993286 191.42025452 -135.14993286 193.12025452 C-133.49993286 193.12025452 -131.84993286 193.12025452 -130.14993286 193.12025452 C-130.14993286 193.78025452 -130.14993286 194.44025452 -130.14993286 195.12025452 C-129.48993286 195.12025452 -128.82993286 195.12025452 -128.14993286 195.12025452 C-128.14993286 196.44025452 -128.14993286 197.76025452 -128.14993286 199.12025452 C-126.49993286 199.45025452 -124.84993286 199.78025452 -123.14993286 200.12025452 C-123.14993286 200.78025452 -123.14993286 201.44025452 -123.14993286 202.12025452 C-122.48993286 202.12025452 -121.82993286 202.12025452 -121.14993286 202.12025452 C-121.14993286 203.44025452 -121.14993286 204.76025452 -121.14993286 206.12025452 C-119.49993286 206.45025452 -117.84993286 206.78025452 -116.14993286 207.12025452 C-116.14993286 207.78025452 -116.14993286 208.44025452 -116.14993286 209.12025452 C-115.48993286 209.12025452 -114.82993286 209.12025452 -114.14993286 209.12025452 C-114.14993286 210.44025452 -114.14993286 211.76025452 -114.14993286 213.12025452 C-112.82993286 213.12025452 -111.50993286 213.12025452 -110.14993286 213.12025452 C-110.14993286 213.78025452 -110.14993286 214.44025452 -110.14993286 215.12025452 C-109.15993286 215.45025452 -108.16993286 215.78025452 -107.14993286 216.12025452 C-107.14993286 217.44025452 -107.14993286 218.76025452 -107.14993286 220.12025452 C-105.82993286 220.12025452 -104.50993286 220.12025452 -103.14993286 220.12025452 C-103.14993286 220.78025452 -103.14993286 221.44025452 -103.14993286 222.12025452 C-102.15993286 222.45025452 -101.16993286 222.78025452 -100.14993286 223.12025452 C-100.14993286 224.44025452 -100.14993286 225.76025452 -100.14993286 227.12025452 C-98.82993286 227.12025452 -97.50993286 227.12025452 -96.14993286 227.12025452 C-96.14993286 227.78025452 -96.14993286 228.44025452 -96.14993286 229.12025452 C-95.48993286 229.12025452 -94.82993286 229.12025452 -94.14993286 229.12025452 C-94.14993286 230.77025452 -94.14993286 232.42025452 -94.14993286 234.12025452 C-92.49993286 234.12025452 -90.84993286 234.12025452 -89.14993286 234.12025452 C-89.14993286 234.78025452 -89.14993286 235.44025452 -89.14993286 236.12025452 C-88.48993286 236.12025452 -87.82993286 236.12025452 -87.14993286 236.12025452 C-87.14993286 237.44025452 -87.14993286 238.76025452 -87.14993286 240.12025452 C-85.49993286 240.45025452 -83.84993286 240.78025452 -82.14993286 241.12025452 C-82.14993286 241.78025452 -82.14993286 242.44025452 -82.14993286 243.12025452 C-81.48993286 243.12025452 -80.82993286 243.12025452 -80.14993286 243.12025452 C-80.14993286 244.44025452 -80.14993286 245.76025452 -80.14993286 247.12025452 C-78.49993286 247.45025452 -76.84993286 247.78025452 -75.14993286 248.12025452 C-75.14993286 248.78025452 -75.14993286 249.44025452 -75.14993286 250.12025452 C-74.48993286 250.12025452 -73.82993286 250.12025452 -73.14993286 250.12025452 C-73.14993286 251.44025452 -73.14993286 252.76025452 -73.14993286 254.12025452 C-71.82993286 254.12025452 -70.50993286 254.12025452 -69.14993286 254.12025452 C-69.14993286 254.78025452 -69.14993286 255.44025452 -69.14993286 256.12025452 C-68.15993286 256.45025452 -67.16993286 256.78025452 -66.14993286 257.12025452 C-66.14993286 258.44025452 -66.14993286 259.76025452 -66.14993286 261.12025452 C-64.82993286 261.12025452 -63.50993286 261.12025452 -62.14993286 261.12025452 C-62.14993286 261.78025452 -62.14993286 262.44025452 -62.14993286 263.12025452 C-61.15993286 263.45025452 -60.16993286 263.78025452 -59.14993286 264.12025452 C-59.14993286 265.44025452 -59.14993286 266.76025452 -59.14993286 268.12025452 C-57.82993286 268.12025452 -56.50993286 268.12025452 -55.14993286 268.12025452 C-55.14993286 268.78025452 -55.14993286 269.44025452 -55.14993286 270.12025452 C-54.48993286 270.12025452 -53.82993286 270.12025452 -53.14993286 270.12025452 C-53.14993286 271.77025452 -53.14993286 273.42025452 -53.14993286 275.12025452 C-51.49993286 275.12025452 -49.84993286 275.12025452 -48.14993286 275.12025452 C-48.14993286 275.78025452 -48.14993286 276.44025452 -48.14993286 277.12025452 C-47.48993286 277.12025452 -46.82993286 277.12025452 -46.14993286 277.12025452 C-46.14993286 278.44025452 -46.14993286 279.76025452 -46.14993286 281.12025452 C-44.49993286 281.45025452 -42.84993286 281.78025452 -41.14993286 282.12025452 C-41.14993286 282.78025452 -41.14993286 283.44025452 -41.14993286 284.12025452 C-40.48993286 284.12025452 -39.82993286 284.12025452 -39.14993286 284.12025452 C-39.14993286 285.44025452 -39.14993286 286.76025452 -39.14993286 288.12025452 C-37.49993286 288.45025452 -35.84993286 288.78025452 -34.14993286 289.12025452 C-34.14993286 289.78025452 -34.14993286 290.44025452 -34.14993286 291.12025452 C-33.48993286 291.12025452 -32.82993286 291.12025452 -32.14993286 291.12025452 C-32.14993286 292.44025452 -32.14993286 293.76025452 -32.14993286 295.12025452 C-30.82993286 295.12025452 -29.50993286 295.12025452 -28.14993286 295.12025452 C-28.14993286 295.78025452 -28.14993286 296.44025452 -28.14993286 297.12025452 C-27.15993286 297.45025452 -26.16993286 297.78025452 -25.14993286 298.12025452 C-25.14993286 299.44025452 -25.14993286 300.76025452 -25.14993286 302.12025452 C-23.82993286 302.12025452 -22.50993286 302.12025452 -21.14993286 302.12025452 C-21.14993286 302.78025452 -21.14993286 303.44025452 -21.14993286 304.12025452 C-20.15993286 304.45025452 -19.16993286 304.78025452 -18.14993286 305.12025452 C-18.14993286 306.44025452 -18.14993286 307.76025452 -18.14993286 309.12025452 C-16.82993286 309.12025452 -15.50993286 309.12025452 -14.14993286 309.12025452 C-14.14993286 309.78025452 -14.14993286 310.44025452 -14.14993286 311.12025452 C-13.48993286 311.12025452 -12.82993286 311.12025452 -12.14993286 311.12025452 C-12.14993286 312.77025452 -12.14993286 314.42025452 -12.14993286 316.12025452 C-11.15993286 316.12025452 -10.16993286 316.12025452 -9.14993286 316.12025452 C-9.14993286 212.17025452 -9.14993286 108.22025452 -9.14993286 1.12025452 C-6.20360753 -0.35290815 -3.22928716 -0.0133962 0 0 Z " fill="#CBF404" transform="translate(456.1499328613281,1.8797454833984375)"/>
</svg>
